<svg xmlns:xlink="http://www.w3.org/1999/xlink" width="265.625" xmlns="http://www.w3.org/2000/svg" height="267.544" id="screenshot-61a131fb-f463-804b-8004-14c9718449fc" viewBox="-12 -12 265.625 267.544" style="-webkit-print-color-adjust: exact;" fill="none" version="1.1"><g id="shape-61a131fb-f463-804b-8004-14c9718449fc" rx="0" ry="0"><g id="shape-61a131fb-f463-804b-8004-14c80a360044"><g class="fills" id="fills-61a131fb-f463-804b-8004-14c80a360044"><path rx="0" ry="0" d="M3.448,149.772C1.195,140.549,0.000,130.913,0.000,121.000C0.000,54.218,54.218,0.000,121.000,0.000C130.391,-0.000,139.534,1.072,148.312,3.101" style="opacity: 1;"/></g><g id="strokes-61a131fb-f463-804b-8004-14c80a360044" class="strokes"><g class="stroke-shape"><path rx="0" ry="0" d="M3.448,149.772C1.195,140.549,0.000,130.913,0.000,121.000C0.000,54.218,54.218,0.000,121.000,0.000C130.391,-0.000,139.534,1.072,148.312,3.101" style="opacity: 1; fill: none; stroke-width: 24; stroke: rgb(255, 255, 255); stroke-opacity: 1; stroke-linecap: round;"/></g></g></g><g id="shape-61a131fb-f463-804b-8004-14c5c3ede6cd"><g class="fills" id="fills-61a131fb-f463-804b-8004-14c5c3ede6cd"><path rx="0" ry="0" d="M238.177,93.772C240.430,102.995,241.625,112.631,241.625,122.544C241.625,189.326,187.406,243.544,120.625,243.544C111.234,243.544,102.091,242.472,93.312,240.443" style="opacity: 1;"/></g><g id="strokes-61a131fb-f463-804b-8004-14c5c3ede6cd" class="strokes"><g class="stroke-shape"><path rx="0" ry="0" d="M238.177,93.772C240.430,102.995,241.625,112.631,241.625,122.544C241.625,189.326,187.406,243.544,120.625,243.544C111.234,243.544,102.091,242.472,93.312,240.443" style="opacity: 1; fill: none; stroke-width: 24; stroke: rgb(255, 255, 255); stroke-opacity: 1; stroke-linecap: round;"/></g></g></g><g id="shape-61a131fb-f463-804b-8004-14c74b566d0d"><g class="fills" id="fills-61a131fb-f463-804b-8004-14c74b566d0d"><ellipse rx="54.5" ry="54.5" cx="119.81235814930415" cy="121.2720397445064" transform="matrix(1.000000, 0.000000, 0.000000, 1.000000, 0.000000, 0.000000)" style="opacity: 1;"/></g><g id="strokes-61a131fb-f463-804b-8004-14c74b566d0d" class="strokes"><g class="stroke-shape"><ellipse rx="54.5" ry="54.5" cx="119.81235814930415" cy="121.2720397445064" transform="matrix(1.000000, 0.000000, 0.000000, 1.000000, 0.000000, 0.000000)" style="opacity: 1; fill: none; stroke-width: 24; stroke: rgb(255, 255, 255); stroke-opacity: 1;"/></g></g></g><g id="shape-61a131fb-f463-804b-8004-14c8cc299c8e"><g class="fills" id="fills-61a131fb-f463-804b-8004-14c8cc299c8e"><ellipse rx="24" ry="24" cx="206.31235814930415" cy="35.7720397445064" transform="matrix(1.000000, 0.000000, 0.000000, 1.000000, 0.000000, 0.000000)" style="fill: rgb(255, 255, 255); fill-opacity: 1;"/></g></g><g id="shape-61a131fb-f463-804b-8004-14c8d3c882bf"><g class="fills" id="fills-61a131fb-f463-804b-8004-14c8d3c882bf"><ellipse rx="24" ry="24" cx="39.312358149304146" cy="202.7720397445064" transform="matrix(1.000000, 0.000000, 0.000000, 1.000000, 0.000000, 0.000000)" style="fill: rgb(255, 255, 255); fill-opacity: 1;"/></g></g></g></svg>