<svg xmlns="http://www.w3.org/2000/svg" width="32" height="32" viewBox="0 0 640 640"><!-- Icon from Font Awesome Solid by Dave Gandy - https://creativecommons.org/licenses/by/4.0/ --><path fill="currentColor" d="M320 205.3v309.3l.5-.2A449 449 0 0 1 492.8 480H512V160h-19.2c-42.2 0-84.1 8.4-123.1 24.6c-16.8 7-33.4 13.9-49.7 20.7m-25.1-79.8L320 136l25.1-10.5C391.9 106 442.1 96 492.8 96H528c26.5 0 48 21.5 48 48v352c0 26.5-21.5 48-48 48h-35.2c-50.7 0-100.9 10-147.7 29.5l-12.8 5.3c-7.9 3.3-16.7 3.3-24.6 0l-12.8-5.3c-46.8-19.5-97-29.5-147.7-29.5H112c-26.5 0-48-21.5-48-48V144c0-26.5 21.5-48 48-48h35.2c50.7 0 100.9 10 147.7 29.5"/></svg>