<svg xmlns="http://www.w3.org/2000/svg" width="32" height="32" viewBox="0 0 24 24"><!-- Icon from Simple Icons by Simple Icons Collaborators - https://github.com/simple-icons/simple-icons/blob/develop/LICENSE.md --><path fill="currentColor" d="M0 0v24h24V0zm5.414 4.02h7.86c.105 0 .15.014.15.134c-.015.285 0 .556 0 .841v.12c-.21.015-.42 0-.615.03c-.3.045-.6.089-.885.164c-.525.165-.793.527-.853 1.022a5 5 0 0 0-.047.674v9.586c0 .405.046.808.091 1.198c.045.435.33.72.736.87c.345.135.718.167 1.078.182c.945.03 1.877.014 2.792-.226c1.32-.33 2.204-1.156 2.64-2.46c.134-.42.193-.855.298-1.29c.015-.03.046-.09.076-.09h.99c-.03 1.8.03 3.599 0 5.399H5.25v-.944c0-.165 0-.149.15-.164c.344-.03.689-.045 1.034-.105c.69-.12 1.005-.467 1.11-1.172c.03-.21.047-.434.047-.644V7.035c0-.27-.032-.54-.062-.795c-.045-.465-.344-.749-.779-.914c-.405-.15-.825-.166-1.245-.196h-.226v-.976c0-.105.03-.134.135-.134"/></svg>